<svg xmlns="http://www.w3.org/2000/svg" xmlns:xlink="http://www.w3.org/1999/xlink" width="500" zoomAndPan="magnify" viewBox="0 0 375 374.999991" height="500" preserveAspectRatio="xMidYMid meet" version="1.0"><defs><clipPath id="2850c43064"><path d="M 0 174 L 232 174 L 232 308.28125 L 0 308.28125 Z M 0 174 " clip-rule="nonzero"/></clipPath><clipPath id="21162970ae"><path d="M 0 0.601562 L 231.359375 0.601562 L 231.359375 134.28125 L 0 134.28125 Z M 0 0.601562 " clip-rule="nonzero"/></clipPath><clipPath id="7757e3e748"><rect x="0" width="232" y="0" height="135"/></clipPath><clipPath id="0711a1cf04"><path d="M 0 0.679688 L 231.359375 0.679688 L 231.359375 134.359375 L 0 134.359375 Z M 0 0.679688 " clip-rule="nonzero"/></clipPath><clipPath id="395fd66388"><rect x="0" width="232" y="0" height="135"/></clipPath><clipPath id="6521765210"><path d="M 62 0.601562 L 294 0.601562 L 294 135 L 62 135 Z M 62 0.601562 " clip-rule="nonzero"/></clipPath><clipPath id="0c4212255b"><path d="M 119 174 L 351 174 L 351 308.28125 L 119 308.28125 Z M 119 174 " clip-rule="nonzero"/></clipPath><clipPath id="ca3fb16968"><rect x="0" width="352" y="0" height="309"/></clipPath></defs><rect x="-37.5" width="450" fill="#ffffff" y="-37.499999" height="449.999989" fill-opacity="1"/><rect x="-37.5" width="450" fill="#ffffff" y="-37.499999" height="449.999989" fill-opacity="1"/><g transform="matrix(1, 0, 0, 1, 12, 33)"><g clip-path="url(#ca3fb16968)"><g clip-path="url(#2850c43064)"><g transform="matrix(1, 0, 0, 1, 0, 174)"><g clip-path="url(#7757e3e748)"><g clip-path="url(#21162970ae)"><path fill="#2b2d2f" d="M 91.164062 120.839844 C 62.796875 116.304688 26.382812 128.148438 8.875 109.632812 C -8.875 90.867188 3.816406 63.132812 16.476562 41.867188 C 27.402344 23.523438 48.285156 10.902344 71.945312 3.71875 C 92.738281 -2.597656 114.183594 2.320312 136.042969 5.554688 C 162.988281 9.542969 194.355469 7.242188 211.566406 24.386719 C 230.773438 43.519531 236.910156 71.730469 225.320312 94.480469 C 214.25 116.210938 184.507812 127.597656 156.144531 133.171875 C 133.671875 137.585938 113.855469 124.46875 91.164062 120.839844 Z M 91.164062 120.839844 " fill-opacity="1" fill-rule="evenodd"/></g></g></g></g><path fill="#ff9873" d="M 259.835938 218.757812 C 288.203125 214.226562 324.617188 226.066406 342.125 207.554688 C 359.875 188.785156 347.183594 161.050781 334.523438 139.785156 C 323.597656 121.441406 302.714844 108.824219 279.054688 101.636719 C 258.261719 95.324219 236.816406 100.238281 214.957031 103.476562 C 188.011719 107.464844 156.644531 105.160156 139.433594 122.304688 C 120.226562 141.4375 114.089844 169.648438 125.679688 192.398438 C 136.75 214.128906 166.488281 225.519531 194.855469 231.089844 C 217.328125 235.507812 237.144531 222.386719 259.835938 218.757812 Z M 259.835938 218.757812 " fill-opacity="1" fill-rule="evenodd"/><g transform="matrix(1, 0, 0, 1, 0, 70)"><g clip-path="url(#395fd66388)"><g clip-path="url(#0711a1cf04)"><path fill="#ff8a5c" d="M 91.164062 120.9375 C 62.796875 116.40625 26.382812 128.246094 8.875 109.734375 C -8.875 90.964844 3.816406 63.230469 16.476562 41.964844 C 27.402344 23.621094 48.285156 11.003906 71.945312 3.816406 C 92.738281 -2.496094 114.183594 2.417969 136.042969 5.652344 C 162.988281 9.644531 194.355469 7.339844 211.566406 24.484375 C 230.773438 43.617188 236.910156 71.828125 225.320312 94.578125 C 214.25 116.308594 184.507812 127.695312 156.144531 133.269531 C 133.671875 137.6875 113.855469 124.566406 91.164062 120.9375 Z M 91.164062 120.9375 " fill-opacity="1" fill-rule="evenodd"/></g></g></g><g clip-path="url(#6521765210)"><path fill="#ff6b35" d="M 202.375 120.847656 C 230.742188 116.3125 267.15625 128.15625 284.664062 109.640625 C 302.414062 90.871094 289.726562 63.136719 277.0625 41.875 C 266.136719 23.527344 245.253906 10.910156 221.59375 3.726562 C 200.800781 -2.589844 179.355469 2.328125 157.496094 5.5625 C 130.550781 9.550781 99.183594 7.25 81.972656 24.394531 C 62.765625 43.527344 56.628906 71.734375 68.21875 94.488281 C 79.289062 116.214844 109.03125 127.605469 137.394531 133.179688 C 159.867188 137.59375 179.683594 124.472656 202.375 120.847656 Z M 202.375 120.847656 " fill-opacity="1" fill-rule="evenodd"/></g><g clip-path="url(#0c4212255b)"><path fill="#333537" d="M 259.835938 294.839844 C 288.203125 290.304688 324.617188 302.148438 342.125 283.632812 C 359.875 264.867188 347.183594 237.132812 334.523438 215.867188 C 323.597656 197.523438 302.714844 184.902344 279.054688 177.71875 C 258.261719 171.402344 236.816406 176.320312 214.957031 179.554688 C 188.011719 183.542969 156.644531 181.242188 139.433594 198.386719 C 120.226562 217.519531 114.089844 245.730469 125.679688 268.480469 C 136.75 290.210938 166.488281 301.597656 194.855469 307.171875 C 217.328125 311.585938 237.144531 298.46875 259.835938 294.839844 Z M 259.835938 294.839844 " fill-opacity="1" fill-rule="evenodd"/></g></g></g></svg>